<svg width="29" height="28" viewBox="0 0 29 28" fill="none" xmlns="http://www.w3.org/2000/svg">
<path fill-rule="evenodd" clip-rule="evenodd" d="M13.1409 14.0077L13.1426 14.4208C13.1568 16.0594 13.2556 17.5213 13.426 18.4478C13.426 18.4645 13.6118 19.3833 13.7301 19.6892C13.916 20.1313 14.2519 20.5065 14.6732 20.7443C15.0105 20.9139 15.3643 21 15.7347 21C16.0258 20.9865 16.5059 20.84 16.8486 20.7172L17.1334 20.608C19.0195 19.8588 22.6251 17.4107 24.006 15.9135L24.1078 15.8089L24.5622 15.3185C24.8485 14.9433 25 14.4845 25 13.991C25 13.5489 24.8651 13.1068 24.5953 12.7496C24.5145 12.6338 24.3844 12.4854 24.2686 12.3599L23.8263 11.897C22.3045 10.355 19.0093 8.19214 17.3014 7.47549C17.3014 7.46007 16.2399 7.01671 15.7347 7H15.6672C14.8921 7 14.1679 7.44208 13.7976 8.1566C13.6964 8.35194 13.5994 8.73458 13.5255 9.07064L13.3929 9.70516C13.2414 10.7255 13.1409 12.2908 13.1409 14.0077ZM5.7538 12.2286C4.78526 12.2286 4 13.0215 4 13.9995C4 14.9775 4.78526 15.7704 5.7538 15.7704L10.0696 15.3887C10.8294 15.3887 11.4454 14.768 11.4454 13.9995C11.4454 13.2323 10.8294 12.6103 10.0696 12.6103L5.7538 12.2286Z" fill="rgba(0, 98, 119, 1)"/>
</svg>
