<svg width="20" height="20" viewBox="0 0 20 20" fill="none" xmlns="http://www.w3.org/2000/svg">
<path d="M19.7029 4.11378C19.0071 4.42212 18.2596 4.63045 17.4737 4.72462C18.2846 4.23944 18.8912 3.47584 19.1804 2.57628C18.4186 3.02877 17.5849 3.34728 16.7154 3.51795C16.1307 2.89367 15.3563 2.47989 14.5124 2.34084C13.6684 2.2018 12.8022 2.34528 12.0481 2.74899C11.2941 3.15271 10.6944 3.79408 10.3422 4.57354C9.99003 5.35299 9.90503 6.22691 10.1004 7.05962C8.55682 6.98211 7.04677 6.58091 5.66827 5.88204C4.28977 5.18317 3.07362 4.20225 2.09875 3.00295C1.76542 3.57795 1.57375 4.24462 1.57375 4.95462C1.57338 5.59378 1.73078 6.22315 2.03198 6.78689C2.33319 7.35064 2.76888 7.83132 3.30042 8.18628C2.68398 8.16667 2.08114 8.0001 1.54208 7.70045V7.75045C1.54202 8.6469 1.85211 9.51577 2.41974 10.2096C2.98736 10.9035 3.77756 11.3796 4.65625 11.5571C4.0844 11.7119 3.48486 11.7347 2.90292 11.6238C3.15083 12.3951 3.63375 13.0696 4.28406 13.5529C4.93437 14.0361 5.71951 14.3039 6.52958 14.3188C5.15444 15.3983 3.45616 15.9839 1.70792 15.9813C1.39823 15.9814 1.08881 15.9633 0.78125 15.9271C2.55581 17.0681 4.62153 17.6736 6.73125 17.6713C13.8729 17.6713 17.7771 11.7563 17.7771 6.62628C17.7771 6.45962 17.7729 6.29128 17.7654 6.12462C18.5248 5.57543 19.1803 4.89536 19.7013 4.11628L19.7029 4.11378Z" fill="#063C32"/>
</svg>
