<svg width="20" height="20" viewBox="0 0 20 20" fill="none" xmlns="http://www.w3.org/2000/svg">
<g clip-path="url(#clip0_176_795)">
<path d="M16.9312 3.74339C15.6562 3.16839 14.2896 2.74339 12.8604 2.50173C12.8477 2.49928 12.8345 2.50086 12.8227 2.50623C12.8109 2.51161 12.8011 2.52052 12.7946 2.53173C12.6196 2.83923 12.4246 3.24006 12.2879 3.55673C10.7721 3.33026 9.23115 3.33026 7.7154 3.55673C7.56318 3.20578 7.39152 2.86358 7.20123 2.53173C7.19478 2.52038 7.18503 2.51127 7.17326 2.50561C7.1615 2.49995 7.14829 2.49802 7.1354 2.50006C5.70707 2.74173 4.3404 3.16673 3.06457 3.74256C3.05359 3.74716 3.04429 3.75501 3.0379 3.76506C0.444567 7.57756 -0.266266 11.2959 0.0829005 14.9676C0.0838721 14.9766 0.0866635 14.9853 0.0911046 14.9931C0.0955458 15.001 0.101544 15.0079 0.108734 15.0134C1.62239 16.1154 3.31068 16.9549 5.1029 17.4967C5.11539 17.5006 5.12876 17.5006 5.14124 17.4967C5.15373 17.4928 5.16476 17.4853 5.1729 17.4751C5.5579 16.9584 5.90123 16.4126 6.19457 15.8392C6.21207 15.8059 6.1954 15.7659 6.1604 15.7526C5.62207 15.5498 5.10047 15.3052 4.6004 15.0209C4.59141 15.0158 4.58384 15.0085 4.57836 14.9997C4.57289 14.9909 4.56967 14.9809 4.56901 14.9706C4.56835 14.9603 4.57026 14.95 4.57458 14.9405C4.57889 14.9311 4.58548 14.923 4.59373 14.9167C4.69873 14.8392 4.80373 14.7584 4.90373 14.6776C4.91273 14.6703 4.92358 14.6657 4.93505 14.6642C4.94653 14.6627 4.95819 14.6645 4.96873 14.6692C8.24123 16.1392 11.7854 16.1392 15.0196 14.6692C15.0301 14.6642 15.0419 14.6622 15.0536 14.6635C15.0652 14.6649 15.0762 14.6694 15.0854 14.6767C15.1854 14.7584 15.2896 14.8392 15.3954 14.9167C15.4037 14.9228 15.4104 14.9309 15.4149 14.9402C15.4193 14.9496 15.4214 14.9598 15.4209 14.9702C15.4204 14.9805 15.4174 14.9905 15.412 14.9994C15.4067 15.0082 15.3993 15.0156 15.3904 15.0209C14.8921 15.3076 14.3737 15.5501 13.8296 15.7517C13.8212 15.7548 13.8136 15.7595 13.8072 15.7658C13.8009 15.772 13.7959 15.7795 13.7927 15.7877C13.7894 15.796 13.788 15.8049 13.7885 15.8138C13.789 15.8227 13.7913 15.8313 13.7954 15.8392C14.0954 16.4117 14.4387 16.9567 14.8162 17.4742C14.8241 17.4848 14.835 17.4928 14.8475 17.497C14.8601 17.5011 14.8736 17.5013 14.8862 17.4976C16.6815 16.9573 18.3726 16.1174 19.8879 15.0134C19.8953 15.0082 19.9015 15.0015 19.9061 14.9938C19.9107 14.986 19.9136 14.9774 19.9146 14.9684C20.3312 10.7234 19.2162 7.03506 16.9571 3.76673C16.9515 3.7561 16.9424 3.74783 16.9312 3.74339ZM6.68373 12.7317C5.69873 12.7317 4.88623 11.8409 4.88623 10.7484C4.88623 9.65506 5.6829 8.76506 6.68373 8.76506C7.69207 8.76506 8.49707 9.66256 8.48123 10.7484C8.48123 11.8417 7.68457 12.7317 6.68373 12.7317ZM13.3296 12.7317C12.3437 12.7317 11.5321 11.8409 11.5321 10.7484C11.5321 9.65506 12.3279 8.76506 13.3296 8.76506C14.3379 8.76506 15.1429 9.66256 15.1271 10.7484C15.1271 11.8417 14.3387 12.7317 13.3296 12.7317Z" fill="#063C32"/>
</g>
<defs>
<clipPath id="clip0_176_795">
<rect width="20" height="20" fill="white"/>
</clipPath>
</defs>
</svg>
