<svg width="20" height="20" viewBox="0 0 20 20" fill="none" xmlns="http://www.w3.org/2000/svg">
<g clip-path="url(#clip0_176_790)">
<path d="M9.99721 6.94318C8.31402 6.94318 6.94041 8.31682 6.94041 10C6.94041 11.6833 8.31402 13.0569 9.99721 13.0569C11.6804 13.0569 13.054 11.6833 13.054 10C13.054 8.31682 11.6804 6.94318 9.99721 6.94318ZM19.1653 10C19.1653 8.73419 19.1768 7.4798 19.1057 6.21623C19.0346 4.74858 18.6998 3.44603 17.6266 2.3728C16.5511 1.29729 15.2509 0.964769 13.7832 0.89368C12.5174 0.82259 11.263 0.834056 9.9995 0.834056C8.73367 0.834056 7.47931 0.82259 6.21577 0.89368C4.74814 0.964769 3.44561 1.29958 2.37241 2.3728C1.29691 3.44832 0.964401 4.74858 0.893312 6.21623C0.822224 7.48209 0.83369 8.73648 0.83369 10C0.83369 11.2636 0.822224 12.5203 0.893312 13.7838C0.964401 15.2515 1.2992 16.5541 2.37241 17.6273C3.44791 18.7028 4.74814 19.0353 6.21577 19.1064C7.4816 19.1775 8.73596 19.166 9.9995 19.166C11.2653 19.166 12.5197 19.1775 13.7832 19.1064C15.2509 19.0353 16.5534 18.7005 17.6266 17.6273C18.7021 16.5518 19.0346 15.2515 19.1057 13.7838C19.1791 12.5203 19.1653 11.2659 19.1653 10ZM9.99721 14.7034C7.39446 14.7034 5.29391 12.6028 5.29391 10C5.29391 7.39724 7.39446 5.29665 9.99721 5.29665C12.6 5.29665 14.7005 7.39724 14.7005 10C14.7005 12.6028 12.6 14.7034 9.99721 14.7034ZM14.8931 6.20248C14.2854 6.20248 13.7947 5.71173 13.7947 5.10402C13.7947 4.49632 14.2854 4.00557 14.8931 4.00557C15.5008 4.00557 15.9916 4.49632 15.9916 5.10402C15.9917 5.24833 15.9635 5.39125 15.9083 5.5246C15.8532 5.65795 15.7723 5.77911 15.6702 5.88115C15.5682 5.98319 15.4471 6.06409 15.3137 6.11923C15.1804 6.17437 15.0374 6.20266 14.8931 6.20248Z" fill="#063C32"/>
</g>
<defs>
<clipPath id="clip0_176_790">
<rect width="20" height="20" fill="white"/>
</clipPath>
</defs>
</svg>
