<svg width="460" height="298" viewBox="0 0 460 298" fill="none" xmlns="http://www.w3.org/2000/svg">
<mask id="mask0_244_5059" style="mask-type:luminance" maskUnits="userSpaceOnUse" x="0" y="-316" width="460" height="614">
<path d="M460 -316H0V297.333H460V-316Z" fill="white"/>
</mask>
<g mask="url(#mask0_244_5059)">
<mask id="mask1_244_5059" style="mask-type:luminance" maskUnits="userSpaceOnUse" x="-7783" y="-8021" width="15409" height="15410">
<path d="M-7782.99 -8020.43H7625.88V7388.43H-7782.99V-8020.43Z" fill="white"/>
</mask>
<g mask="url(#mask1_244_5059)">
<mask id="mask2_244_5059" style="mask-type:luminance" maskUnits="userSpaceOnUse" x="-7167" y="-8021" width="15410" height="15410">
<path d="M8242.23 -8020.43H-7166.63V7388.44H8242.23V-8020.43Z" fill="white"/>
</mask>
<g mask="url(#mask2_244_5059)">
<g opacity="0.5">
<path d="M350.357 124.304L340.803 128.666L344.095 135.943L353.648 131.581L350.357 124.304Z" fill="#0D0D80"/>
</g>
</g>
<mask id="mask3_244_5059" style="mask-type:luminance" maskUnits="userSpaceOnUse" x="-7167" y="-8021" width="15410" height="15410">
<path d="M8242.23 -8020.43H-7166.63V7388.44H8242.23V-8020.43Z" fill="white"/>
</mask>
<g mask="url(#mask3_244_5059)">
<path d="M355.993 51.1739L347.207 55.6961L351.124 63.362L359.91 58.8399L355.993 51.1739Z" fill="#FF9500"/>
</g>
<mask id="mask4_244_5059" style="mask-type:luminance" maskUnits="userSpaceOnUse" x="-7167" y="-8021" width="15410" height="15410">
<path d="M8242.23 -8020.43H-7166.63V7388.44H8242.23V-8020.43Z" fill="white"/>
</mask>
<g mask="url(#mask4_244_5059)">
<g opacity="0.5">
<path d="M371.329 8.23435L367.43 10.8663L372.516 18.4184L376.414 15.7864L371.329 8.23435Z" fill="#FF9500"/>
</g>
</g>
<mask id="mask5_244_5059" style="mask-type:luminance" maskUnits="userSpaceOnUse" x="-7167" y="-8021" width="15410" height="15410">
<path d="M8242.23 -8020.43H-7166.63V7388.44H8242.23V-8020.43Z" fill="white"/>
</mask>
<g mask="url(#mask5_244_5059)">
<path d="M368.195 112.342L363.409 114.527L366.706 121.817L371.492 119.633L368.195 112.342Z" fill="#2AAC7E"/>
</g>
<mask id="mask6_244_5059" style="mask-type:luminance" maskUnits="userSpaceOnUse" x="-7167" y="-8021" width="15410" height="15410">
<path d="M8242.23 -8020.43H-7166.63V7388.44H8242.23V-8020.43Z" fill="white"/>
</mask>
<g mask="url(#mask6_244_5059)">
<path d="M369.93 114.744C371.738 126.302 357.701 136.803 359.509 148.36C359.815 150.314 360.552 152.077 361.572 153.715" stroke="#FF9500" stroke-width="1.37166" stroke-linecap="round" stroke-linejoin="round"/>
</g>
<mask id="mask7_244_5059" style="mask-type:luminance" maskUnits="userSpaceOnUse" x="-7167" y="-8021" width="15410" height="15410">
<path d="M8242.23 -8020.43H-7166.63V7388.44H8242.23V-8020.43Z" fill="white"/>
</mask>
<g mask="url(#mask7_244_5059)">
<path d="M326.842 229.886C328.023 232.03 328.816 234.285 328.943 236.732C329.326 244.178 323.186 250.266 318.928 256.83" stroke="#2AAC7E" stroke-width="1.09821" stroke-linecap="round" stroke-linejoin="round"/>
</g>
<mask id="mask8_244_5059" style="mask-type:luminance" maskUnits="userSpaceOnUse" x="-7167" y="-8021" width="15410" height="15410">
<path d="M8242.23 -8020.43H-7166.63V7388.44H8242.23V-8020.43Z" fill="white"/>
</mask>
<g mask="url(#mask8_244_5059)">
<g opacity="0.5">
<path d="M338.578 63.4462L344.879 69.4394L351.629 62.3422L345.328 56.349L338.578 63.4462Z" fill="#2AAC7E"/>
</g>
</g>
<mask id="mask9_244_5059" style="mask-type:luminance" maskUnits="userSpaceOnUse" x="-7167" y="-8021" width="15410" height="15410">
<path d="M8242.23 -8020.43H-7166.63V7388.44H8242.23V-8020.43Z" fill="white"/>
</mask>
<g mask="url(#mask9_244_5059)">
<path d="M378.356 56.4506L385.414 61.5361L391.13 53.5866L384.072 48.5011L378.356 56.4506Z" fill="#2AAC7E"/>
</g>
<mask id="mask10_244_5059" style="mask-type:luminance" maskUnits="userSpaceOnUse" x="-7167" y="-8021" width="15410" height="15410">
<path d="M8242.23 -8020.43H-7166.63V7388.44H8242.23V-8020.43Z" fill="white"/>
</mask>
<g mask="url(#mask10_244_5059)">
<g opacity="0.5">
<path d="M393.064 14.7382L396.863 17.303L402.082 9.55193L398.283 6.98718L393.064 14.7382Z" fill="#0D0D80"/>
</g>
</g>
<mask id="mask11_244_5059" style="mask-type:luminance" maskUnits="userSpaceOnUse" x="-7167" y="-8021" width="15410" height="15410">
<path d="M8242.23 -8020.43H-7166.63V7388.44H8242.23V-8020.43Z" fill="white"/>
</mask>
<g mask="url(#mask11_244_5059)">
<path d="M395.857 112.021L393.095 114.931L400.683 122.134L403.445 119.224L395.857 112.021Z" fill="#FF9500"/>
</g>
<mask id="mask12_244_5059" style="mask-type:luminance" maskUnits="userSpaceOnUse" x="-7167" y="-8021" width="15410" height="15410">
<path d="M8242.23 -8020.43H-7166.63V7388.44H8242.23V-8020.43Z" fill="white"/>
</mask>
<g mask="url(#mask12_244_5059)">
<g opacity="0.5">
<path d="M296.286 31.7753C295.616 34.4046 296.948 37.028 299.261 37.6299C301.573 38.2318 303.995 36.5857 304.666 33.9564C305.337 31.3271 304.004 28.7036 301.692 28.1018C299.379 27.4999 296.957 29.146 296.286 31.7753Z" fill="#0D0D80"/>
</g>
</g>
<mask id="mask13_244_5059" style="mask-type:luminance" maskUnits="userSpaceOnUse" x="-7167" y="-8021" width="15410" height="15410">
<path d="M8242.23 -8020.43H-7166.63V7388.44H8242.23V-8020.43Z" fill="white"/>
</mask>
<g mask="url(#mask13_244_5059)">
<path d="M432.607 208.141C430.831 210.69 430.719 213.687 432.356 214.83C433.993 215.973 436.763 214.832 438.539 212.284C440.315 209.736 440.427 206.738 438.79 205.595C437.153 204.452 434.383 205.593 432.607 208.141Z" fill="#FF9500"/>
</g>
<mask id="mask14_244_5059" style="mask-type:luminance" maskUnits="userSpaceOnUse" x="-7167" y="-8021" width="15410" height="15410">
<path d="M8242.23 -8020.43H-7166.63V7388.44H8242.23V-8020.43Z" fill="white"/>
</mask>
<g mask="url(#mask14_244_5059)">
<path d="M407.422 277.029C406.903 278.479 406.587 279.981 406.548 281.555C406.349 289.513 413.533 295.722 417.948 302.689" stroke="#2AAC7E" stroke-width="1.07381" stroke-linecap="round" stroke-linejoin="round"/>
</g>
<mask id="mask15_244_5059" style="mask-type:luminance" maskUnits="userSpaceOnUse" x="-7167" y="-8021" width="15410" height="15410">
<path d="M8242.23 -8020.43H-7166.63V7388.44H8242.23V-8020.43Z" fill="white"/>
</mask>
<g mask="url(#mask15_244_5059)">
<path d="M369.015 253.887C372.228 256.691 374.918 259.762 375.893 263.706C377.455 270.021 373.906 276.283 371.009 282.607" stroke="#0D0D80" stroke-width="1.14363" stroke-linecap="round" stroke-linejoin="round"/>
</g>
</g>
<mask id="mask16_244_5059" style="mask-type:luminance" maskUnits="userSpaceOnUse" x="-7783" y="-8021" width="15409" height="15410">
<path d="M-7782.99 -8020.43H7625.88V7388.43H-7782.99V-8020.43Z" fill="white"/>
</mask>
<g mask="url(#mask16_244_5059)">
<mask id="mask17_244_5059" style="mask-type:luminance" maskUnits="userSpaceOnUse" x="-7783" y="-8021" width="15409" height="15410">
<path d="M-7782.99 -8020.43H7625.88V7388.44H-7782.99V-8020.43Z" fill="white"/>
</mask>
<g mask="url(#mask17_244_5059)">
<g opacity="0.5">
<path d="M108.883 124.303L118.437 128.665L115.146 135.942L105.592 131.58L108.883 124.303Z" fill="#0D0D80"/>
</g>
</g>
<mask id="mask18_244_5059" style="mask-type:luminance" maskUnits="userSpaceOnUse" x="-7783" y="-8021" width="15409" height="15410">
<path d="M-7782.99 -8020.43H7625.88V7388.44H-7782.99V-8020.43Z" fill="white"/>
</mask>
<g mask="url(#mask18_244_5059)">
<path d="M103.259 51.172L112.045 55.6941L108.128 63.36L99.3418 58.8379L103.259 51.172Z" fill="#FF9500"/>
</g>
<mask id="mask19_244_5059" style="mask-type:luminance" maskUnits="userSpaceOnUse" x="-7783" y="-8021" width="15409" height="15410">
<path d="M-7782.99 -8020.43H7625.88V7388.44H-7782.99V-8020.43Z" fill="white"/>
</mask>
<g mask="url(#mask19_244_5059)">
<g opacity="0.5">
<path d="M87.9254 8.23289L91.8239 10.8648L86.7384 18.4169L82.8398 15.785L87.9254 8.23289Z" fill="#FF9500"/>
</g>
</g>
<mask id="mask20_244_5059" style="mask-type:luminance" maskUnits="userSpaceOnUse" x="-7783" y="-8021" width="15409" height="15410">
<path d="M-7782.99 -8020.43H7625.88V7388.44H-7782.99V-8020.43Z" fill="white"/>
</mask>
<g mask="url(#mask20_244_5059)">
<path d="M91.0533 112.34L95.8395 114.525L92.5421 121.816L87.7559 119.631L91.0533 112.34Z" fill="#2AAC7E"/>
</g>
<mask id="mask21_244_5059" style="mask-type:luminance" maskUnits="userSpaceOnUse" x="-7783" y="-8021" width="15409" height="15410">
<path d="M-7782.99 -8020.43H7625.88V7388.44H-7782.99V-8020.43Z" fill="white"/>
</mask>
<g mask="url(#mask21_244_5059)">
<path d="M89.3125 114.742C87.5041 126.3 101.541 136.801 99.733 148.358C99.4274 150.312 98.6906 152.075 97.6698 153.713" stroke="#FF9500" stroke-width="1.37166" stroke-linecap="round" stroke-linejoin="round"/>
</g>
<mask id="mask22_244_5059" style="mask-type:luminance" maskUnits="userSpaceOnUse" x="-7783" y="-8021" width="15409" height="15410">
<path d="M-7782.99 -8020.43H7625.88V7388.44H-7782.99V-8020.43Z" fill="white"/>
</mask>
<g mask="url(#mask22_244_5059)">
<path d="M132.402 229.885C131.221 232.029 130.428 234.284 130.302 236.731C129.918 244.177 136.058 250.265 140.316 256.829" stroke="#2AAC7E" stroke-width="1.09821" stroke-linecap="round" stroke-linejoin="round"/>
</g>
<mask id="mask23_244_5059" style="mask-type:luminance" maskUnits="userSpaceOnUse" x="-7783" y="-8021" width="15409" height="15410">
<path d="M-7782.99 -8020.43H7625.88V7388.44H-7782.99V-8020.43Z" fill="white"/>
</mask>
<g mask="url(#mask23_244_5059)">
<g opacity="0.5">
<path d="M120.662 63.4452L114.361 69.4384L107.611 62.3412L113.912 56.348L120.662 63.4452Z" fill="#2AAC7E"/>
</g>
</g>
<mask id="mask24_244_5059" style="mask-type:luminance" maskUnits="userSpaceOnUse" x="-7783" y="-8021" width="15409" height="15410">
<path d="M-7782.99 -8020.43H7625.88V7388.44H-7782.99V-8020.43Z" fill="white"/>
</mask>
<g mask="url(#mask24_244_5059)">
<path d="M80.8844 56.4497L73.8264 61.5351L68.11 53.5856L75.168 48.5001L80.8844 56.4497Z" fill="#2AAC7E"/>
</g>
<mask id="mask25_244_5059" style="mask-type:luminance" maskUnits="userSpaceOnUse" x="-7783" y="-8021" width="15409" height="15410">
<path d="M-7782.99 -8020.43H7625.88V7388.44H-7782.99V-8020.43Z" fill="white"/>
</mask>
<g mask="url(#mask25_244_5059)">
<g opacity="0.5">
<path d="M66.1864 14.7372L62.3873 17.302L57.1677 9.55096L60.9668 6.98621L66.1864 14.7372Z" fill="#0D0D80"/>
</g>
</g>
<mask id="mask26_244_5059" style="mask-type:luminance" maskUnits="userSpaceOnUse" x="-7783" y="-8021" width="15409" height="15410">
<path d="M-7782.99 -8020.43H7625.88V7388.44H-7782.99V-8020.43Z" fill="white"/>
</mask>
<g mask="url(#mask26_244_5059)">
<path d="M63.3829 112.02L66.1454 114.93L58.5575 122.133L55.7949 119.223L63.3829 112.02Z" fill="#FF9500"/>
</g>
<mask id="mask27_244_5059" style="mask-type:luminance" maskUnits="userSpaceOnUse" x="-7783" y="-8021" width="15409" height="15410">
<path d="M-7782.99 -8020.43H7625.88V7388.44H-7782.99V-8020.43Z" fill="white"/>
</mask>
<g mask="url(#mask27_244_5059)">
<g opacity="0.5">
<path d="M162.96 31.7743C163.63 34.4036 162.298 37.0271 159.985 37.6289C157.673 38.2308 155.251 36.5847 154.58 33.9554C153.909 31.3261 155.242 28.7027 157.554 28.1008C159.867 27.4989 162.289 29.145 162.96 31.7743Z" fill="#0D0D80"/>
</g>
</g>
<mask id="mask28_244_5059" style="mask-type:luminance" maskUnits="userSpaceOnUse" x="-7783" y="-8021" width="15409" height="15410">
<path d="M-7782.99 -8020.43H7625.88V7388.44H-7782.99V-8020.43Z" fill="white"/>
</mask>
<g mask="url(#mask28_244_5059)">
<path d="M26.6333 208.14C28.4089 210.689 28.5215 213.686 26.8846 214.829C25.2476 215.972 22.4768 214.831 20.7012 212.283C18.9256 209.735 18.813 206.737 20.45 205.594C22.0869 204.451 24.8577 205.592 26.6333 208.14Z" fill="#FF9500"/>
</g>
<mask id="mask29_244_5059" style="mask-type:luminance" maskUnits="userSpaceOnUse" x="-7783" y="-8021" width="15409" height="15410">
<path d="M-7782.99 -8020.43H7625.88V7388.44H-7782.99V-8020.43Z" fill="white"/>
</mask>
<g mask="url(#mask29_244_5059)">
<path d="M51.8197 277.029C52.3389 278.479 52.6549 279.981 52.6943 281.555C52.8932 289.513 45.7088 295.722 41.2943 302.689" stroke="#2AAC7E" stroke-width="1.07381" stroke-linecap="round" stroke-linejoin="round"/>
</g>
<mask id="mask30_244_5059" style="mask-type:luminance" maskUnits="userSpaceOnUse" x="-7783" y="-8021" width="15409" height="15410">
<path d="M-7782.99 -8020.43H7625.88V7388.44H-7782.99V-8020.43Z" fill="white"/>
</mask>
<g mask="url(#mask30_244_5059)">
<path d="M90.2312 253.886C87.0181 256.69 84.3279 259.761 83.3528 263.705C81.7913 270.02 85.3403 276.282 88.2372 282.606" stroke="#0D0D80" stroke-width="1.14363" stroke-linecap="round" stroke-linejoin="round"/>
</g>
</g>
<mask id="mask31_244_5059" style="mask-type:luminance" maskUnits="userSpaceOnUse" x="-7514" y="-7800" width="15108" height="15107">
<path d="M-7513.33 -7799.88H7593.4V7306.86H-7513.33V-7799.88Z" fill="white"/>
</mask>
<g mask="url(#mask31_244_5059)">
<mask id="mask32_244_5059" style="mask-type:luminance" maskUnits="userSpaceOnUse" x="-7620" y="-7861" width="15108" height="15108">
<path d="M-7619.07 -7860.3H7487.66V7246.43H-7619.07V-7860.3Z" fill="white"/>
</mask>
<g mask="url(#mask32_244_5059)">
<g opacity="0.5">
<path d="M238.426 109.199L226.34 108.901L226.535 100.694L238.621 100.992L238.426 109.199Z" fill="#0D0D80"/>
</g>
</g>
<mask id="mask33_244_5059" style="mask-type:luminance" maskUnits="userSpaceOnUse" x="-7620" y="-7861" width="15108" height="15108">
<path d="M-7619.07 -7860.3H7487.66V7246.43H-7619.07V-7860.3Z" fill="white"/>
</mask>
<g mask="url(#mask33_244_5059)">
<g opacity="0.5">
<path d="M132.71 139.05L126.666 138.965L126.776 130.781L132.82 130.865L132.71 139.05Z" fill="#FF9500"/>
</g>
</g>
<mask id="mask34_244_5059" style="mask-type:luminance" maskUnits="userSpaceOnUse" x="-7620" y="-7861" width="15108" height="15108">
<path d="M-7619.07 -7860.3H7487.66V7246.43H-7619.07V-7860.3Z" fill="white"/>
</mask>
<g mask="url(#mask34_244_5059)">
<g opacity="0.5">
<path d="M104.896 252.177C106.369 252.979 106.279 256.005 104.695 258.929C103.111 261.853 100.629 263.575 99.1554 262.772C97.6822 261.969 97.7722 258.944 99.3563 256.02C100.94 253.096 103.423 251.374 104.896 252.177Z" fill="#FF3B30"/>
</g>
</g>
<mask id="mask35_244_5059" style="mask-type:luminance" maskUnits="userSpaceOnUse" x="-7620" y="-7861" width="15108" height="15108">
<path d="M-7619.07 -7860.3H7487.66V7246.43H-7619.07V-7860.3Z" fill="white"/>
</mask>
<g mask="url(#mask35_244_5059)">
<path d="M128.962 140.243C129.042 142.297 126.4 144.074 123.066 144.209C119.732 144.343 116.96 142.785 116.88 140.731C116.8 138.678 119.442 136.901 122.776 136.766C126.11 136.631 128.881 138.189 128.962 140.243Z" fill="#FF9500"/>
</g>
<mask id="mask36_244_5059" style="mask-type:luminance" maskUnits="userSpaceOnUse" x="-7620" y="-7861" width="15108" height="15108">
<path d="M-7619.07 -7860.3H7487.66V7246.43H-7619.07V-7860.3Z" fill="white"/>
</mask>
<g mask="url(#mask36_244_5059)">
<g opacity="0.5">
<path d="M115.05 106.337L112.006 113.071L100.972 108.037L104.016 101.304L115.05 106.337Z" fill="#0D0D80"/>
</g>
</g>
<mask id="mask37_244_5059" style="mask-type:luminance" maskUnits="userSpaceOnUse" x="-7620" y="-7861" width="15108" height="15108">
<path d="M-7619.07 -7860.3H7487.66V7246.43H-7619.07V-7860.3Z" fill="white"/>
</mask>
<g mask="url(#mask37_244_5059)">
<path d="M132.108 46.7432L140.368 48.0319L138.557 59.9552L130.297 58.6665L132.108 46.7432Z" fill="#2AAC7E"/>
</g>
<mask id="mask38_244_5059" style="mask-type:luminance" maskUnits="userSpaceOnUse" x="-7620" y="-7861" width="15108" height="15108">
<path d="M-7619.07 -7860.3H7487.66V7246.43H-7619.07V-7860.3Z" fill="white"/>
</mask>
<g mask="url(#mask38_244_5059)">
<g opacity="0.5">
<path d="M128.291 119.198L126.751 122.537L115.767 117.435L117.307 114.097L128.291 119.198Z" fill="#0D0D80"/>
</g>
</g>
<mask id="mask39_244_5059" style="mask-type:luminance" maskUnits="userSpaceOnUse" x="-7620" y="-7861" width="15108" height="15108">
<path d="M-7619.07 -7860.3H7487.66V7246.43H-7619.07V-7860.3Z" fill="white"/>
</mask>
<g mask="url(#mask39_244_5059)">
<path d="M232.128 111.954L228.358 113.762L223.173 102.876L226.943 101.069L232.128 111.954Z" fill="#FF9500"/>
</g>
<mask id="mask40_244_5059" style="mask-type:luminance" maskUnits="userSpaceOnUse" x="-7620" y="-7861" width="15108" height="15108">
<path d="M-7619.07 -7860.3H7487.66V7246.43H-7619.07V-7860.3Z" fill="white"/>
</mask>
<g mask="url(#mask40_244_5059)">
<path d="M187.394 217.553C189.947 219.705 191.149 222.486 190.076 223.758C189.004 225.03 186.061 224.316 183.509 222.164C180.956 220.012 179.755 217.232 180.827 215.96C181.899 214.687 184.842 215.402 187.394 217.553Z" fill="#FF9500"/>
</g>
</g>
<mask id="mask41_244_5059" style="mask-type:luminance" maskUnits="userSpaceOnUse" x="-7496" y="-7800" width="15107" height="15107">
<path d="M-7495.96 -7799.88H7610.78V7306.86H-7495.96V-7799.88Z" fill="white"/>
</mask>
<g mask="url(#mask41_244_5059)">
<mask id="mask42_244_5059" style="mask-type:luminance" maskUnits="userSpaceOnUse" x="-7030" y="-7861" width="15108" height="15108">
<path d="M8077.56 -7860.3H-7029.17V7246.43H8077.56V-7860.3Z" fill="white"/>
</mask>
<g mask="url(#mask42_244_5059)">
<g opacity="0.5">
<path d="M220.06 109.2L232.146 108.902L231.951 100.696L219.865 100.994L220.06 109.2Z" fill="#0D0D80"/>
</g>
</g>
<mask id="mask43_244_5059" style="mask-type:luminance" maskUnits="userSpaceOnUse" x="-7030" y="-7861" width="15108" height="15108">
<path d="M8077.56 -7860.3H-7029.17V7246.43H8077.56V-7860.3Z" fill="white"/>
</mask>
<g mask="url(#mask43_244_5059)">
<g opacity="0.5">
<path d="M325.776 139.051L331.821 138.966L331.71 130.782L325.666 130.867L325.776 139.051Z" fill="#FF9500"/>
</g>
</g>
<mask id="mask44_244_5059" style="mask-type:luminance" maskUnits="userSpaceOnUse" x="-7030" y="-7861" width="15108" height="15108">
<path d="M8077.56 -7860.3H-7029.17V7246.43H8077.56V-7860.3Z" fill="white"/>
</mask>
<g mask="url(#mask44_244_5059)">
<g opacity="0.5">
<path d="M353.594 252.179C352.121 252.981 352.211 256.007 353.795 258.931C355.379 261.855 357.862 263.577 359.335 262.774C360.808 261.971 360.718 258.946 359.134 256.022C357.55 253.098 355.068 251.376 353.594 252.179Z" fill="#FF3B30"/>
</g>
</g>
<mask id="mask45_244_5059" style="mask-type:luminance" maskUnits="userSpaceOnUse" x="-7030" y="-7861" width="15108" height="15108">
<path d="M8077.56 -7860.3H-7029.17V7246.43H8077.56V-7860.3Z" fill="white"/>
</mask>
<g mask="url(#mask45_244_5059)">
<path d="M329.531 140.245C329.451 142.298 332.092 144.075 335.426 144.21C338.76 144.345 341.532 142.787 341.612 140.733C341.692 138.679 339.05 136.902 335.716 136.767C332.383 136.633 329.611 138.191 329.531 140.245Z" fill="#FF9500"/>
</g>
<mask id="mask46_244_5059" style="mask-type:luminance" maskUnits="userSpaceOnUse" x="-7030" y="-7861" width="15108" height="15108">
<path d="M8077.56 -7860.3H-7029.17V7246.43H8077.56V-7860.3Z" fill="white"/>
</mask>
<g mask="url(#mask46_244_5059)">
<g opacity="0.5">
<path d="M343.442 106.339L346.486 113.072L357.52 108.039L354.477 101.306L343.442 106.339Z" fill="#0D0D80"/>
</g>
</g>
<mask id="mask47_244_5059" style="mask-type:luminance" maskUnits="userSpaceOnUse" x="-7030" y="-7861" width="15108" height="15108">
<path d="M8077.56 -7860.3H-7029.17V7246.43H8077.56V-7860.3Z" fill="white"/>
</mask>
<g mask="url(#mask47_244_5059)">
<path d="M326.384 46.7451L318.124 48.0339L319.935 59.9572L328.195 58.6685L326.384 46.7451Z" fill="#2AAC7E"/>
</g>
<mask id="mask48_244_5059" style="mask-type:luminance" maskUnits="userSpaceOnUse" x="-7030" y="-7861" width="15108" height="15108">
<path d="M8077.56 -7860.3H-7029.17V7246.43H8077.56V-7860.3Z" fill="white"/>
</mask>
<g mask="url(#mask48_244_5059)">
<g opacity="0.5">
<path d="M330.201 119.199L331.741 122.538L342.726 117.436L341.186 114.098L330.201 119.199Z" fill="#0D0D80"/>
</g>
</g>
<mask id="mask49_244_5059" style="mask-type:luminance" maskUnits="userSpaceOnUse" x="-7030" y="-7861" width="15108" height="15108">
<path d="M8077.56 -7860.3H-7029.17V7246.43H8077.56V-7860.3Z" fill="white"/>
</mask>
<g mask="url(#mask49_244_5059)">
<path d="M226.36 111.956L230.131 113.764L235.315 102.878L231.545 101.071L226.36 111.956Z" fill="#FF9500"/>
</g>
<mask id="mask50_244_5059" style="mask-type:luminance" maskUnits="userSpaceOnUse" x="-7030" y="-7861" width="15108" height="15108">
<path d="M8077.56 -7860.3H-7029.17V7246.43H8077.56V-7860.3Z" fill="white"/>
</mask>
<g mask="url(#mask50_244_5059)">
<path d="M271.098 217.555C268.545 219.707 267.344 222.488 268.416 223.76C269.488 225.032 272.431 224.318 274.983 222.166C277.536 220.014 278.738 217.234 277.665 215.962C276.593 214.689 273.65 215.403 271.098 217.555Z" fill="#FF9500"/>
</g>
</g>
</g>
</svg>
