<svg width="569" height="157" viewBox="0 0 569 157" fill="none" xmlns="http://www.w3.org/2000/svg">
<g filter="url(#filter0_ii_84_449)">
<path d="M57.5527 0.75C64.4993 0.678385 72.1263 2.00326 80.4336 4.72461C88.4544 7.58919 95.2578 12.5664 100.844 19.6562C106.43 26.6745 110.118 34.7669 111.908 43.9336C113.699 53.1003 112.911 62.3027 109.545 71.541C106.179 80.7793 99.5905 89.015 89.7793 96.248C89.4928 96.4629 89.9941 97.179 91.2832 98.3965C93.2884 100.187 96.4036 104.09 100.629 110.105C104.854 116.049 109.258 125.145 113.842 137.391C114.844 140.757 113.913 143.729 111.049 146.307C108.256 148.813 104.532 150.532 99.877 151.463C95.222 152.322 90.6029 152 86.0195 150.496C81.5078 148.921 77.9987 145.805 75.4922 141.15C70.6224 131.626 65.9674 124.607 61.5273 120.096C57.0872 115.512 53.0052 112.612 49.2812 111.395C45.5573 110.105 42.2988 109.64 39.5059 109.998C39.4342 125.61 39.1478 135.564 38.6465 139.861C37.7871 143.872 34.9941 147.166 30.2676 149.744C25.541 152.251 20.528 152.931 15.2285 151.785C9.92904 150.568 5.99023 146.378 3.41211 139.217C2.33789 135.135 1.62174 126.613 1.26367 113.65C0.977214 100.688 0.905599 86.4727 1.04883 71.0039C1.26367 55.4635 1.55013 41.821 1.9082 30.0762C2.33789 18.3314 2.69596 11.6354 2.98242 9.98828C4.12826 6.19271 6.49154 3.61458 10.0723 2.25391C13.7246 0.893229 17.6992 0.570964 21.9961 1.28711C26.293 2.00326 29.9811 3.54297 33.0605 5.90625C39.5059 2.75521 47.6699 1.03646 57.5527 0.75ZM55.4043 37.918C49.7467 37.9896 44.2324 39.0996 38.8613 41.248C39.1478 52.5632 39.3268 64.9525 39.3984 78.416C44.6979 78.416 49.89 77.6999 54.9746 76.2676C60.1309 74.8353 64.3561 72.4362 67.6504 69.0703C70.9447 65.6328 72.4844 60.9421 72.2695 54.998C71.7682 48.7676 69.9421 44.3633 66.791 41.7852C63.64 39.207 59.8444 37.918 55.4043 37.918ZM143.275 1.07227C148.074 1.07227 152.156 2.28971 155.521 4.72461C158.887 7.08789 160.857 10.6328 161.43 15.3594C161.716 20.7305 160.248 25.6719 157.025 30.1836C153.874 34.6953 149.685 37.3092 144.457 38.0254C139.229 38.4551 134.682 37.4167 130.814 34.9102C126.947 32.332 124.691 28.5007 124.047 23.416C123.689 18.1165 125.121 13.2826 128.344 8.91406C131.638 4.47396 135.899 1.89583 141.127 1.17969H141.342C141.986 1.10807 142.631 1.07227 143.275 1.07227ZM143.275 52.7422C147.429 52.8854 151.153 54.4251 154.447 57.3613C157.742 60.2975 159.818 64.487 160.678 69.9297C160.893 71.7201 161.107 77.1986 161.322 86.3652C161.537 95.4603 161.573 105.307 161.43 115.906C161.358 126.505 160.928 134.884 160.141 141.043C158.923 146.629 155.665 150.138 150.365 151.57C145.137 153.003 139.945 152.573 134.789 150.281C129.633 147.99 126.553 144.122 125.551 138.68C124.906 133.094 124.441 125.431 124.154 115.691C123.939 105.952 123.832 96.7493 123.832 88.084C123.904 79.347 124.083 73.8327 124.369 71.541C125.73 64.9525 128.165 60.1543 131.674 57.1465C135.183 54.0671 139.05 52.599 143.275 52.7422ZM236.947 52.5273C237.663 52.5273 238.415 52.5632 239.203 52.6348C247.94 53.1361 254.887 56.3229 260.043 62.1953C265.199 68.0677 268.887 75.4798 271.107 84.4316C273.399 93.3118 274.545 102.622 274.545 112.361C274.545 122.101 273.793 131.089 272.289 139.324C270.857 145.411 267.491 149.529 262.191 151.678C256.892 153.826 251.7 154.005 246.615 152.215C241.531 150.424 238.63 146.665 237.914 140.936C237.842 139.861 237.914 137.14 238.129 132.771C238.272 128.26 238.415 123.247 238.559 117.732C238.702 112.146 238.666 107.312 238.451 103.23C238.236 99.0768 237.735 96.8926 236.947 96.6777C234.011 97.0358 230.538 100.115 226.527 105.916C222.517 111.717 218.829 118.234 215.463 125.467C212.169 132.628 210.092 138.429 209.232 142.869C208.015 147.452 204.757 150.496 199.457 152C194.158 153.504 188.858 153.253 183.559 151.248C178.259 149.243 174.965 145.268 173.676 139.324C172.96 134.311 172.53 126.147 172.387 114.832C172.315 103.517 172.351 92.7031 172.494 82.3906C172.709 72.0065 172.924 65.8118 173.139 63.8066C174.213 58.7936 177.364 55.6068 182.592 54.2461C187.891 52.8138 193.119 52.9212 198.275 54.5684C203.503 56.1439 206.475 58.901 207.191 62.8398C207.335 65.9193 207.299 68.4974 207.084 70.5742C206.941 71.9349 206.905 72.9733 206.977 73.6895C207.048 74.334 207.406 74.513 208.051 74.2266C208.266 74.0833 208.624 73.4388 209.125 72.293C209.984 70.3594 211.417 67.8887 213.422 64.8809C215.499 61.873 218.435 59.1517 222.23 56.7168C226.026 54.2103 230.932 52.8138 236.947 52.5273ZM331.479 51.7754C337.351 51.9902 343.367 54.2461 349.525 58.543C355.684 62.7682 360.912 68.569 365.209 75.9453C369.577 83.25 371.977 91.6289 372.406 101.082C372.836 110.464 370.222 120.382 364.564 130.838C358.477 141.079 350.242 147.882 339.857 151.248C329.473 154.542 319.268 154.65 309.242 151.57C299.216 148.491 291.768 142.475 286.898 133.523C282.387 124.142 280.417 114.331 280.99 104.09C281.563 93.849 283.926 84.8613 288.08 77.127C292.305 69.3926 297.712 64.6302 304.301 62.8398C306.234 62.5534 309.457 63.0189 313.969 64.2363C314.112 64.0215 314.219 63.8066 314.291 63.5918C315.007 62.1595 315.437 61.2643 315.58 60.9062C315.723 60.2617 316.189 59.2233 316.977 57.791C317.836 56.3587 319.376 54.998 321.596 53.709C323.887 52.4199 327.182 51.7754 331.479 51.7754ZM323.637 87.7617C320.486 91.9154 318.516 95.7826 317.729 99.3633C317.012 102.944 317.048 105.916 317.836 108.279C319.841 113.937 322.169 116.658 324.818 116.443C327.468 116.229 329.831 114.581 331.908 111.502C334.057 108.351 335.238 105.2 335.453 102.049C335.596 98.3965 334.451 95.3887 332.016 93.0254C329.652 90.5905 326.859 88.8359 323.637 87.7617ZM432.777 52.8496C441.801 52.8496 449.356 55.9648 455.443 62.1953C459.167 66.4922 460.456 70.9323 459.311 75.5156C458.165 80.0273 455.443 83.6081 451.146 86.2578C446.921 88.9076 441.944 89.6237 436.215 88.4062C432.419 87.6185 428.839 88.0482 425.473 89.6953C422.107 91.3424 419.779 93.4909 418.49 96.1406C416.915 99.6497 416.628 103.266 417.631 106.99C418.633 110.714 421.355 113.471 425.795 115.262C430.521 116.766 436.286 117.267 443.09 116.766C449.965 116.264 455.264 115.405 458.988 114.188C464.359 112.54 467.868 113.077 469.516 115.799C471.163 118.449 471.199 122.029 469.623 126.541C468.119 130.981 465.219 135.135 460.922 139.002C453.259 145.376 444.88 149.529 435.785 151.463C426.69 153.325 417.882 153.038 409.359 150.604C400.837 148.169 393.64 143.657 387.768 137.068C381.967 130.48 378.529 121.886 377.455 111.287C376.739 100.044 379.138 90.0534 384.652 81.3164C390.238 72.5078 397.4 65.597 406.137 60.584C414.945 55.4993 423.826 52.9212 432.777 52.8496ZM526.557 51.7754C532.429 51.9902 538.445 54.2461 544.604 58.543C550.762 62.7682 555.99 68.569 560.287 75.9453C564.656 83.25 567.055 91.6289 567.484 101.082C567.914 110.464 565.3 120.382 559.643 130.838C553.555 141.079 545.32 147.882 534.936 151.248C524.551 154.542 514.346 154.65 504.32 151.57C494.294 148.491 486.846 142.475 481.977 133.523C477.465 124.142 475.495 114.331 476.068 104.09C476.641 93.849 479.005 84.8613 483.158 77.127C487.383 69.3926 492.79 64.6302 499.379 62.8398C501.312 62.5534 504.535 63.0189 509.047 64.2363C509.19 64.0215 509.298 63.8066 509.369 63.5918C510.085 62.1595 510.515 61.2643 510.658 60.9062C510.801 60.2617 511.267 59.2233 512.055 57.791C512.914 56.3587 514.454 54.998 516.674 53.709C518.965 52.4199 522.26 51.7754 526.557 51.7754ZM518.715 87.7617C515.564 91.9154 513.594 95.7826 512.807 99.3633C512.09 102.944 512.126 105.916 512.914 108.279C514.919 113.937 517.247 116.658 519.896 116.443C522.546 116.229 524.91 114.581 526.986 111.502C529.135 108.351 530.316 105.2 530.531 102.049C530.674 98.3965 529.529 95.3887 527.094 93.0254C524.73 90.5905 521.938 88.8359 518.715 87.7617Z" fill="white"/>
</g>
<defs>
<filter id="filter0_ii_84_449" x="0.833984" y="-7.78711" width="567.295" height="171.977" filterUnits="userSpaceOnUse" color-interpolation-filters="sRGB">
<feFlood flood-opacity="0" result="BackgroundImageFix"/>
<feBlend mode="normal" in="SourceGraphic" in2="BackgroundImageFix" result="shape"/>
<feColorMatrix in="SourceAlpha" type="matrix" values="0 0 0 0 0 0 0 0 0 0 0 0 0 0 0 0 0 0 127 0" result="hardAlpha"/>
<feOffset dy="8"/>
<feGaussianBlur stdDeviation="4"/>
<feComposite in2="hardAlpha" operator="arithmetic" k2="-1" k3="1"/>
<feColorMatrix type="matrix" values="0 0 0 0 1 0 0 0 0 1 0 0 0 0 1 0 0 0 1 0"/>
<feBlend mode="normal" in2="shape" result="effect1_innerShadow_84_449"/>
<feColorMatrix in="SourceAlpha" type="matrix" values="0 0 0 0 0 0 0 0 0 0 0 0 0 0 0 0 0 0 127 0" result="hardAlpha"/>
<feOffset dy="-8"/>
<feGaussianBlur stdDeviation="8"/>
<feComposite in2="hardAlpha" operator="arithmetic" k2="-1" k3="1"/>
<feColorMatrix type="matrix" values="0 0 0 0 0.501961 0 0 0 0 0.870588 0 0 0 0 0.917647 0 0 0 0.9 0"/>
<feBlend mode="normal" in2="effect1_innerShadow_84_449" result="effect2_innerShadow_84_449"/>
</filter>
</defs>
</svg>
