<svg width="337" height="47" viewBox="0 0 337 47" fill="none" xmlns="http://www.w3.org/2000/svg">
<g filter="url(#filter0_ii_323_156)">
<path d="M13.4062 0.8125C18.0729 0.8125 22.3021 0.864583 26.0938 0.96875C29.9062 1.07292 32.4167 1.20833 33.625 1.375C34.7917 1.60417 35.7396 2.38542 36.4688 3.71875C37.1979 5.03125 37.375 6.4375 37 7.9375C36.6458 9.41667 35.4375 10.5208 33.375 11.25C32.0833 11.7292 28.7188 11.9583 23.2812 11.9375C24.0312 12.4375 24.5104 13 24.7188 13.625C24.8854 14.3333 25.0104 15.9896 25.0938 18.5938C25.1979 21.1979 25.2708 24.0938 25.3125 27.2812C25.375 30.4688 25.4167 33.3125 25.4375 35.8125C25.4583 38.3125 25.4583 39.8125 25.4375 40.3125C25.375 41.7708 24.8438 42.8958 23.8438 43.6875C22.8438 44.4583 21.6771 44.8646 20.3438 44.9062C19.0104 44.9271 17.8125 44.5625 16.75 43.8125C15.7083 43.0625 15.1042 41.9062 14.9375 40.3438C14.8958 39.8021 14.8333 37.6875 14.75 34C14.6667 30.2917 14.5833 26.2812 14.5 21.9688C14.4375 17.6562 14.4271 14.2708 14.4688 11.8125C8.57292 11.6667 5.10417 11.5 4.0625 11.3125C2.54167 11.0208 1.57292 10.1354 1.15625 8.65625C0.760417 7.15625 0.84375 5.63542 1.40625 4.09375C1.98958 2.55208 3.01042 1.57292 4.46875 1.15625C5.26042 0.927083 8.23958 0.8125 13.4062 0.8125ZM44.8125 1C46.0833 1.0625 47.1667 1.57292 48.0625 2.53125C48.9792 3.48958 49.4479 4.76042 49.4688 6.34375C49.4688 7.63542 49.4583 9.78125 49.4375 12.7812C49.4167 14.5312 49.3958 16.4062 49.375 18.4062C49.4375 18.2604 49.5 18.1667 49.5625 18.125C49.75 18.0417 50.2812 17.9792 51.1562 17.9375C52.0521 17.8958 53.0833 17.875 54.25 17.875C55.4375 17.8542 56.5729 17.8646 57.6562 17.9062C57.9062 11.7188 58.1771 7.57292 58.4688 5.46875C58.8438 3.57292 59.6875 2.28125 61 1.59375C62.3333 0.885417 63.6667 0.833333 65 1.4375C66.3542 2.04167 67.2292 3.35417 67.625 5.375C68.0625 8.27083 68.3229 12.1667 68.4062 17.0625C68.5104 21.9583 68.5 26.6771 68.375 31.2188C68.25 35.7604 68.0417 38.9375 67.75 40.75C67.4167 42.3958 66.5521 43.5833 65.1562 44.3125C63.7812 45.0417 62.3854 45.1146 60.9688 44.5312C59.5521 43.9479 58.6042 42.4896 58.125 40.1562C57.6875 37.2188 57.4583 33.4479 57.4375 28.8438C54.8958 28.9479 52.5729 28.7188 50.4688 28.1562C49.9688 28.0104 49.5729 27.7083 49.2812 27.25C49.2396 30.6458 49.1875 33.6458 49.125 36.25C49.0833 38.8333 49.0208 40.5521 48.9375 41.4062C48.7292 42.6354 47.9583 43.6146 46.625 44.3438C45.2917 45.0729 43.8854 45.2708 42.4062 44.9375C40.9479 44.6042 39.9062 43.4479 39.2812 41.4688C38.8854 39.6354 38.6562 36.2083 38.5938 31.1875C38.5312 26.1667 38.5833 21.1771 38.75 16.2188C38.9375 11.2604 39.1979 7.94792 39.5312 6.28125C40.0104 4.38542 40.7292 3.02083 41.6875 2.1875C42.6667 1.33333 43.7083 0.9375 44.8125 1ZM75.9062 0.96875C77.4271 1.05208 78.7708 1.39583 79.9375 2C81.3125 1.41667 83.25 1.09375 85.75 1.03125C88.25 0.947917 90.8854 1.04167 93.6562 1.3125C95.6771 1.60417 97.1354 2.5 98.0312 4C98.9271 5.47917 99.0833 7 98.5 8.5625C97.9375 10.1042 96.4792 11.1146 94.125 11.5938C92.3125 11.8854 90.2396 11.9896 87.9062 11.9062C85.5729 11.8021 83.5417 11.6354 81.8125 11.4062C81.8333 13.2604 81.8438 15.25 81.8438 17.375C83.5312 17.3542 85.1146 17.3854 86.5938 17.4688C88.0938 17.5521 89.1146 17.6458 89.6562 17.75C91.5521 18.1667 92.8438 18.9583 93.5312 20.125C94.2396 21.2917 94.4271 22.5417 94.0938 23.875C93.7604 25.1875 93.0104 26.3021 91.8438 27.2188C90.6771 28.1146 89.1875 28.5104 87.375 28.4062C87 28.3646 86.125 28.3021 84.75 28.2188C83.8125 28.1771 82.8021 28.125 81.7188 28.0625C81.6771 30.2292 81.6354 32.2708 81.5938 34.1875C83.8229 34.0625 85.9792 33.9896 88.0625 33.9688C90.1667 33.9479 91.5312 33.9688 92.1562 34.0312C94.6562 34.3229 96.4062 34.9479 97.4062 35.9062C98.4271 36.8646 98.8646 37.9375 98.7188 39.125C98.5938 40.3125 98.0625 41.3854 97.125 42.3438C96.1875 43.3021 95.0104 43.9375 93.5938 44.25C88.9688 45.0417 84.4479 45.1562 80.0312 44.5938C79.1771 44.9271 78.1562 45 76.9688 44.8125C75.8021 44.6042 74.6979 44.0729 73.6562 43.2188C72.6354 42.3646 71.9375 41.1146 71.5625 39.4688C71.25 37.8229 71.0521 35.2188 70.9688 31.6562C70.9062 28.0938 70.9062 24.3021 70.9688 20.2812C71.0521 16.2604 71.1562 12.7396 71.2812 9.71875C71.4062 6.69792 71.5208 4.90625 71.625 4.34375C71.9167 3.07292 72.4583 2.1875 73.25 1.6875C74.0417 1.1875 74.9271 0.947917 75.9062 0.96875ZM129.875 1C131.896 0.979167 134.115 1.36458 136.531 2.15625C138.865 2.98958 140.844 4.4375 142.469 6.5C144.094 8.54167 145.167 10.8958 145.688 13.5625C146.208 16.2292 145.979 18.9062 145 21.5938C144.021 24.2812 142.104 26.6771 139.25 28.7812C139.167 28.8438 139.312 29.0521 139.688 29.4062C140.271 29.9271 141.177 31.0625 142.406 32.8125C143.635 34.5417 144.917 37.1875 146.25 40.75C146.542 41.7292 146.271 42.5938 145.438 43.3438C144.625 44.0729 143.542 44.5729 142.188 44.8438C140.833 45.0938 139.49 45 138.156 44.5625C136.844 44.1042 135.823 43.1979 135.094 41.8438C133.677 39.0729 132.323 37.0312 131.031 35.7188C129.74 34.3854 128.552 33.5417 127.469 33.1875C126.385 32.8125 125.438 32.6771 124.625 32.7812C124.604 37.3229 124.521 40.2188 124.375 41.4688C124.125 42.6354 123.312 43.5938 121.938 44.3438C120.562 45.0729 119.104 45.2708 117.562 44.9375C116.021 44.5833 114.875 43.3646 114.125 41.2812C113.812 40.0938 113.604 37.6146 113.5 33.8438C113.417 30.0729 113.396 25.9375 113.438 21.4375C113.5 16.9167 113.583 12.9479 113.688 9.53125C113.812 6.11458 113.917 4.16667 114 3.6875C114.333 2.58333 115.021 1.83333 116.062 1.4375C117.125 1.04167 118.281 0.947917 119.531 1.15625C120.781 1.36458 121.854 1.8125 122.75 2.5C124.625 1.58333 127 1.08333 129.875 1ZM129.25 11.8125C127.604 11.8333 126 12.1562 124.438 12.7812C124.521 16.0729 124.573 19.6771 124.594 23.5938C126.135 23.5938 127.646 23.3854 129.125 22.9688C130.625 22.5521 131.854 21.8542 132.812 20.875C133.771 19.875 134.219 18.5104 134.156 16.7812C134.01 14.9688 133.479 13.6875 132.562 12.9375C131.646 12.1875 130.542 11.8125 129.25 11.8125ZM154.562 0.84375C155.729 0.802083 156.792 1.10417 157.75 1.75C158.708 2.375 159.323 3.34375 159.594 4.65625C159.844 6.26042 160.042 9.8125 160.188 15.3125C160.333 20.8125 160.344 26.3125 160.219 31.8125C160.115 37.3125 159.781 40.8542 159.219 42.4375C158.594 43.6667 157.615 44.4583 156.281 44.8125C154.948 45.1458 153.656 45.0833 152.406 44.625C151.156 44.1458 150.354 43.3333 150 42.1875C149.438 39.75 149.083 35.9271 148.938 30.7188C148.812 25.5104 148.812 20.4062 148.938 15.4062C149.083 10.3854 149.302 6.92708 149.594 5.03125C149.844 3.67708 150.438 2.65625 151.375 1.96875C152.333 1.26042 153.396 0.885417 154.562 0.84375ZM191.719 0.9375C192.99 0.9375 194.104 1.32292 195.062 2.09375C196.042 2.84375 196.615 3.88542 196.781 5.21875C196.927 6.82292 197.094 9.19792 197.281 12.3438C197.49 15.4896 197.573 18.9375 197.531 22.6875C197.51 26.4167 197.25 29.9792 196.75 33.375C196.271 36.75 195.427 39.4896 194.219 41.5938C193.031 43.3646 191.688 44.4375 190.188 44.8125C188.688 45.1875 187.292 45.1979 186 44.8438C184.708 44.4896 183.812 44.0833 183.312 43.625C181.958 42.3958 180.708 40.6146 179.562 38.2812C178.438 35.9479 177.448 33.5625 176.594 31.125C175.76 28.6875 175.115 26.6771 174.656 25.0938C174.26 23.7812 174.031 23.0938 173.969 23.0312C173.865 23.0521 173.812 23.6354 173.812 24.7812C173.812 25.9271 173.833 27.3854 173.875 29.1562C173.938 31.6354 173.958 34.1146 173.938 36.5938C173.938 39.0521 173.802 40.8021 173.531 41.8438C173.094 43.0938 172.135 43.9479 170.656 44.4062C169.177 44.8646 167.719 44.875 166.281 44.4375C164.844 44 163.969 43.0417 163.656 41.5625C163.406 39.8333 163.219 37.2292 163.094 33.75C162.99 30.2708 162.917 26.5938 162.875 22.7188C162.833 18.8438 162.812 15.4792 162.812 12.625C162.833 9.75 162.854 8.07292 162.875 7.59375C163.021 5.03125 163.802 3.27083 165.219 2.3125C166.656 1.35417 168.229 0.927083 169.938 1.03125C171.646 1.13542 172.99 1.5 173.969 2.125C175.927 3.5 177.625 5.57292 179.062 8.34375C180.5 11.0938 181.708 14.0104 182.688 17.0938C183.688 20.1562 184.479 22.8333 185.062 25.125C185.708 27.6667 186.156 29.0104 186.406 29.1562C186.573 29.1354 186.646 28.3229 186.625 26.7188C186.625 25.0938 186.583 23.0625 186.5 20.625C186.396 17.5833 186.333 14.5833 186.312 11.625C186.292 8.64583 186.427 6.46875 186.719 5.09375C187.094 3.63542 187.74 2.57292 188.656 1.90625C189.594 1.23958 190.615 0.916667 191.719 0.9375ZM215.5 0.9375C216.792 0.958333 217.812 1.25 218.562 1.8125C219.333 2.35417 219.854 3.04167 220.125 3.875C223.562 3.58333 226.635 4.48958 229.344 6.59375C232.073 8.67708 233.958 11.7188 235 15.7188C236.042 19.7188 235.76 24.4167 234.156 29.8125C232.656 34.2708 230.312 37.8021 227.125 40.4062C223.938 43.0104 220.5 44.5208 216.812 44.9375C213.125 45.3333 209.771 44.5 206.75 42.4375C203.75 40.3542 201.677 36.8646 200.531 31.9688C199.615 27.3854 199.469 23.2708 200.094 19.625C200.719 15.9792 201.792 12.8438 203.312 10.2188C204.854 7.59375 206.542 5.52083 208.375 4C210.229 2.45833 211.906 1.52083 213.406 1.1875C214.177 1.02083 214.875 0.9375 215.5 0.9375ZM215.156 12.25C213.76 13.7917 212.625 15.8229 211.75 18.3438C210.875 20.8646 210.521 23.7917 210.688 27.125C210.854 29.3333 211.49 31.0417 212.594 32.25C213.719 33.4375 215.031 34.0208 216.531 34C218.031 33.9792 219.458 33.25 220.812 31.8125C222.167 30.3542 223.188 28.0833 223.875 25C224.479 22.0833 224.521 19.7812 224 18.0938C223.5 16.3854 222.5 15.1042 221 14.25C219.521 13.375 217.615 12.7188 215.281 12.2812C215.24 12.2604 215.208 12.25 215.188 12.25C215.167 12.25 215.156 12.25 215.156 12.25ZM243.25 0.9375C245 1.04167 246.406 1.48958 247.469 2.28125C249.469 1.34375 251.698 0.916667 254.156 1C256.635 1.0625 259.177 1.78125 261.781 3.15625C264.26 4.57292 266.219 6.71875 267.656 9.59375C269.094 12.4688 269.958 15.7083 270.25 19.3125C270.542 22.8958 270.198 26.4479 269.219 29.9688C268.26 33.4896 266.604 36.6042 264.25 39.3125C261.896 42.0208 258.792 43.9271 254.938 45.0312C251.104 46.1562 246.458 46.1042 241 44.875C240.417 44.7083 240.01 44.4688 239.781 44.1562C238.948 43.6771 238.406 42.8438 238.156 41.6562C237.906 40.1771 237.76 37.6146 237.719 33.9688C237.677 30.3021 237.688 26.3542 237.75 22.125C237.833 17.8958 237.917 14.1875 238 11C238.104 7.79167 238.177 5.89583 238.219 5.3125C238.406 3.66667 238.979 2.52083 239.938 1.875C240.896 1.20833 242 0.895833 243.25 0.9375ZM253.031 11.7188C252.198 11.7396 251.417 11.9479 250.688 12.3438C249.958 12.7188 249.302 13.1771 248.719 13.7188C248.823 17.3229 248.885 21.0938 248.906 25.0312C248.927 28.9479 248.896 32.4167 248.812 35.4375C252.167 34.1458 254.688 32.3646 256.375 30.0938C258.062 27.8229 259.052 25.4375 259.344 22.9375C259.635 20.4375 259.354 18.1875 258.5 16.1875C257.646 14.1875 256.344 12.8125 254.594 12.0625C254.052 11.8542 253.531 11.7396 253.031 11.7188ZM277.781 0.96875C279.302 1.05208 280.646 1.39583 281.812 2C283.188 1.41667 285.125 1.09375 287.625 1.03125C290.125 0.947917 292.76 1.04167 295.531 1.3125C297.552 1.60417 299.01 2.5 299.906 4C300.802 5.47917 300.958 7 300.375 8.5625C299.812 10.1042 298.354 11.1146 296 11.5938C294.188 11.8854 292.115 11.9896 289.781 11.9062C287.448 11.8021 285.417 11.6354 283.688 11.4062C283.708 13.2604 283.719 15.25 283.719 17.375C285.406 17.3542 286.99 17.3854 288.469 17.4688C289.969 17.5521 290.99 17.6458 291.531 17.75C293.427 18.1667 294.719 18.9583 295.406 20.125C296.115 21.2917 296.302 22.5417 295.969 23.875C295.635 25.1875 294.885 26.3021 293.719 27.2188C292.552 28.1146 291.062 28.5104 289.25 28.4062C288.875 28.3646 288 28.3021 286.625 28.2188C285.688 28.1771 284.677 28.125 283.594 28.0625C283.552 30.2292 283.51 32.2708 283.469 34.1875C285.698 34.0625 287.854 33.9896 289.938 33.9688C292.042 33.9479 293.406 33.9688 294.031 34.0312C296.531 34.3229 298.281 34.9479 299.281 35.9062C300.302 36.8646 300.74 37.9375 300.594 39.125C300.469 40.3125 299.938 41.3854 299 42.3438C298.062 43.3021 296.885 43.9375 295.469 44.25C290.844 45.0417 286.323 45.1562 281.906 44.5938C281.052 44.9271 280.031 45 278.844 44.8125C277.677 44.6042 276.573 44.0729 275.531 43.2188C274.51 42.3646 273.812 41.1146 273.438 39.4688C273.125 37.8229 272.927 35.2188 272.844 31.6562C272.781 28.0938 272.781 24.3021 272.844 20.2812C272.927 16.2604 273.031 12.7396 273.156 9.71875C273.281 6.69792 273.396 4.90625 273.5 4.34375C273.792 3.07292 274.333 2.1875 275.125 1.6875C275.917 1.1875 276.802 0.947917 277.781 0.96875ZM307.281 0.84375C308.51 0.864583 309.615 1.3125 310.594 2.1875C310.865 2.45833 311.771 3.67708 313.312 5.84375C314.854 8.01042 316.74 10.6875 318.969 13.875C323.052 8.20833 325.854 4.47917 327.375 2.6875C328.833 1.1875 330.323 0.635417 331.844 1.03125C333.385 1.40625 334.562 2.27083 335.375 3.625C336.208 4.97917 336.292 6.34375 335.625 7.71875C333.667 11.1146 330.302 16.3333 325.531 23.375C327.885 26.8542 329.969 29.9792 331.781 32.75C333.594 35.5208 334.802 37.4792 335.406 38.625C335.969 39.9583 335.74 41.2396 334.719 42.4688C333.719 43.6771 332.375 44.4375 330.688 44.75C329.021 45.0625 327.49 44.5208 326.094 43.125C324.052 40.8542 321.562 37.5833 318.625 33.3125C315.229 38.125 312.604 41.625 310.75 43.8125C309.625 44.9792 308.302 45.375 306.781 45C305.26 44.625 304.042 43.7812 303.125 42.4688C302.229 41.1354 302.146 39.625 302.875 37.9375C303.542 36.625 304.708 34.6875 306.375 32.125C308.062 29.5625 309.979 26.7188 312.125 23.5938C309.438 19.4062 307.156 15.7396 305.281 12.5938C303.406 9.44792 302.365 7.5625 302.156 6.9375C301.76 5.08333 302.115 3.60417 303.219 2.5C304.323 1.39583 305.677 0.84375 307.281 0.84375Z" fill="white"/>
</g>
<defs>
<filter id="filter0_ii_323_156" x="0.5625" y="-3.5625" width="336.062" height="52.2812" filterUnits="userSpaceOnUse" color-interpolation-filters="sRGB">
<feFlood flood-opacity="0" result="BackgroundImageFix"/>
<feBlend mode="normal" in="SourceGraphic" in2="BackgroundImageFix" result="shape"/>
<feColorMatrix in="SourceAlpha" type="matrix" values="0 0 0 0 0 0 0 0 0 0 0 0 0 0 0 0 0 0 127 0" result="hardAlpha"/>
<feOffset dy="2"/>
<feGaussianBlur stdDeviation="2"/>
<feComposite in2="hardAlpha" operator="arithmetic" k2="-1" k3="1"/>
<feColorMatrix type="matrix" values="0 0 0 0 1 0 0 0 0 1 0 0 0 0 1 0 0 0 1 0"/>
<feBlend mode="normal" in2="shape" result="effect1_innerShadow_323_156"/>
<feColorMatrix in="SourceAlpha" type="matrix" values="0 0 0 0 0 0 0 0 0 0 0 0 0 0 0 0 0 0 127 0" result="hardAlpha"/>
<feOffset dy="-4"/>
<feGaussianBlur stdDeviation="2"/>
<feComposite in2="hardAlpha" operator="arithmetic" k2="-1" k3="1"/>
<feColorMatrix type="matrix" values="0 0 0 0 0.501961 0 0 0 0 0.870588 0 0 0 0 0.917647 0 0 0 0.9 0"/>
<feBlend mode="normal" in2="effect1_innerShadow_323_156" result="effect2_innerShadow_323_156"/>
</filter>
</defs>
</svg>
